<svg version="1.1" width="90" height="80" id="Слой_1" xmlns="http://www.w3.org/2000/svg" x="0" y="0" viewBox="0 0 110.143 59.737" style="enable-background:new 0 0 110.1426315 59.7365417" xml:space="preserve"><style>.st2,.st3{fill-rule:evenodd;clip-rule:evenodd;fill:#00aeef}.st3{fill:#fff}</style><path d="M3.2 57.141H0v-8.285h3.104c1.435 0 2.434.83 2.434 2.212 0 .88-.518 1.554-1.213 1.815.784.29 1.354.973 1.354 1.97 0 1.513-1.012 2.288-2.478 2.288zm9.383-.008-.66-1.869H8.308l-.662 1.87h-.94l3.044-8.278h.724l3.056 8.277h-.948zm2.29.008h.881v-8.285h-.881v8.285zm8.429 0-2.528-4.394-1.747 2.09v2.304h-.876v-8.285h.876v4.76l3.856-4.76h1.104l-2.623 3.2 2.985 5.085h-1.047zm7.241-.008-.654-1.869H26.26l-.682 1.87h-.933l3.05-8.278h.758l3.022 8.277h-.932zm2.277.008v-8.285h.88v7.51h4.237v.775H32.82zm8.794.074c-1.25 0-2.074-.314-2.834-1.105l.61-.59c.668.68 1.32.896 2.251.896 1.206 0 1.945-.57 1.945-1.516 0-.443-.122-.815-.39-1.051-.258-.234-.491-.304-1.085-.4l-.947-.148c-.663-.112-1.178-.306-1.54-.616-.42-.388-.618-.885-.618-1.571 0-1.393.996-2.33 2.65-2.33 1.049 0 1.754.278 2.463.907l-.566.57c-.521-.454-1.065-.69-1.939-.69-1.106 0-1.744.612-1.744 1.508 0 .415.116.752.382.962.249.229.665.392 1.092.469l.912.128c.795.128 1.17.28 1.525.586.44.388.692.966.692 1.641 0 1.458-1.141 2.35-2.859 2.35zm4.706-.074v-8.285h5.15v.8h-4.257v2.912h3.632v.8h-3.632v2.998h4.258v.775H46.32zm11.811-.008-.66-1.869h-3.61l-.668 1.87h-.952l3.058-8.278h.739l3.033 8.277h-.94zm7.76.082c-.805 0-1.56-.294-2.121-.85-.759-.795-.759-1.617-.759-3.359 0-1.76 0-2.563.759-3.35a2.962 2.962 0 0 1 2.121-.873c1.494 0 2.599.908 2.872 2.475h-.911c-.214-1.028-.925-1.66-1.96-1.66-.536 0-1.058.2-1.428.577-.514.531-.578 1.097-.578 2.831 0 1.718.064 2.3.578 2.832.37.372.892.578 1.427.578 1.036 0 1.77-.656 1.988-1.676h.884c-.261 1.575-1.402 2.475-2.872 2.475zm8.358-.66c-.393.404-.937.66-1.643.66-.693 0-1.251-.256-1.638-.66-.584-.581-.7-1.388-.7-2.269 0-.883.116-1.694.7-2.295.387-.38.945-.625 1.638-.625.706 0 1.25.244 1.643.625.588.601.691 1.412.691 2.295 0 .88-.103 1.688-.69 2.27zm9.835.586v-3.526c0-1.012-.555-1.511-1.406-1.511-.836 0-1.424.51-1.424 1.422v3.615h-.847v-3.526c0-1.012-.538-1.511-1.4-1.511-.858 0-1.42.51-1.42 1.511v3.526h-.848v-5.713h.848v.613c.397-.458.96-.675 1.596-.675.787 0 1.418.306 1.756.93.452-.624 1.09-.93 1.9-.93.62 0 1.131.18 1.474.527.4.388.618.939.618 1.575v3.673h-.847zm6.73-.434c-.3.298-.814.515-1.398.515-.618 0-1.147-.166-1.613-.752v3.216h-.832v-8.258h.832v.676c.466-.618.995-.738 1.613-.738.584 0 1.098.18 1.398.504.582.563.705 1.53.705 2.416 0 .889-.123 1.83-.705 2.42zm5.733.434v-.539c-.462.454-.88.613-1.65.613-.78 0-1.266-.16-1.612-.52-.281-.283-.43-.705-.43-1.167 0-.993.693-1.65 1.976-1.65h1.716v-.553c0-.842-.409-1.256-1.462-1.256-.723 0-1.105.193-1.454.655l-.56-.516c.507-.67 1.093-.842 2.021-.842 1.538 0 2.306.636 2.306 1.892v3.883h-.851zm6.535 0v-3.526c0-1.012-.53-1.511-1.41-1.511-.843 0-1.402.51-1.402 1.511v3.526h-.839v-5.713h.84v.613c.4-.458.964-.675 1.593-.675.62 0 1.13.171 1.47.527.405.388.6.939.6 1.575v3.673h-.852zm4.302 1.38c-.116.307-.241.54-.41.687-.31.292-.72.408-1.125.408h-.352v-.765h.255c.578 0 .76-.182.937-.705l.417-1.133-2.06-5.585h.912l1.568 4.6 1.549-4.6h.907l-2.598 7.094zm-10.837-4.014h-1.603c-.851 0-1.288.346-1.288 1.013 0 .659.409.97 1.332.97.483 0 .915-.039 1.266-.392.204-.175.293-.512.293-.977v-.614zm-7.299-2.403c-1.25 0-1.445 1.05-1.445 2.182 0 1.117.196 2.184 1.445 2.184 1.251 0 1.431-1.067 1.431-2.184 0-1.132-.18-2.182-1.43-2.182zm-15.584.414a1.533 1.533 0 0 0-1.058-.414c-.405 0-.767.158-1.027.414-.427.407-.471 1.129-.471 1.768 0 .636.044 1.339.47 1.766.26.27.623.418 1.028.418.41 0 .792-.147 1.058-.418.397-.427.436-1.13.436-1.766 0-.64-.039-1.36-.436-1.768zm-17.978-2.385-1.569 4.374h3.084l-1.515-4.374zm-27.597 0-1.563 4.374h3.094l-1.531-4.374zm-17.96 0-1.547 4.374h3.078l-1.53-4.374zm-7.098-.477H.883v2.882h2.148c.917 0 1.628-.47 1.628-1.47 0-.963-.711-1.412-1.628-1.412zm.102 3.665H.883v3.045h2.25c1.02 0 1.658-.606 1.658-1.528 0-.939-.638-1.517-1.658-1.517z" style="fill-rule:evenodd;clip-rule:evenodd;fill:#051153"/><path d="M20.424 40.152c22.474 0 55.119-33.366 70.467-33.366 8.06 0 14.947 5.958 14.947 13.31S98.95 33.407 90.89 33.407c-7.46 0-20.384-8.397-25.029-11.86L56.88 26.86l6.236 3.687v-.006c7.821 5.375 19.444 9.612 26.44 9.612 11.28 0 20.423-8.98 20.423-20.056C109.98 9.02 100.836.04 89.556.04 66.25.04 36.019 33.406 19.089 33.406c-8.06 0-14.949-5.96-14.949-13.311s6.888-13.31 14.949-13.31c6.546 0 20.113 8.448 24.973 11.892l9.03-5.34-6.23-3.691v.004C39.041 4.277 27.42.041 20.424.041 9.145.041 0 9.021 0 20.096c0 11.076 9.145 20.056 20.424 20.056" style="fill-rule:evenodd;clip-rule:evenodd;fill:#282781"/><path class="st2" d="M90.67 8.632c-6.99 0-23.207 11.105-23.207 11.546 0 .44 15.218 11.545 23.207 11.545 6.99 0 12.965-5.168 12.965-11.545 0-6.376-5.974-11.546-12.965-11.546"/><path class="st3" d="M99.46 17.524c-.793 3.343-4.946 1.433-8.985-.03-5.136-1.86-13.322-1.215-13.293-1.475.03-.259 11.028-5.424 14.94-5.222 3.914.201 7.766 2.975 7.338 6.727"/><path class="st2" d="M19.31 8.632c-6.991 0-12.964 5.17-12.964 11.546 0 6.377 5.973 11.545 12.964 11.545 7.988 0 23.206-11.105 23.206-11.545 0-.441-16.215-11.546-23.206-11.546"/><path class="st3" d="M19.505 17.494c-4.04 1.463-8.19 3.373-8.985.03-.427-3.752 3.425-6.526 7.338-6.727C21.77 10.595 32.77 15.76 32.8 16.02c.03.26-8.158-.384-13.294 1.475"/></svg>