<?xml version="1.0" encoding="utf-8"?>
<!-- Generator: Adobe Illustrator 21.1.0, SVG Export Plug-In . SVG Version: 6.00 Build 0)  -->
<svg version="1.1" id="Слой_1" xmlns="http://www.w3.org/2000/svg" xmlns:xlink="http://www.w3.org/1999/xlink" x="0px" y="0px"
	 viewBox="0 0 140 29.3999023" width="105" height="34" fill="none" style="enable-background:new 0 0 140 29.3999023;" xml:space="preserve">
<style type="text/css">
	.st0{fill-rule:evenodd;clip-rule:evenodd;fill:#FFFFFF;}
	.st1{fill:#FFFFFF;}
</style>
<path class="st0" d="M14.8516846,12.9359131c3.4900513-0.5457764,5.762207-2.855835,5.762207-5.8380127
	C20.6138916,2.3937988,17.3272705,0,9.9822388,0H0v0.041748C2.6373291,1.0500488,3.2055664,2.604126,3.2055664,7.5180664v21.8818359
	h7.1013794c1.0957642,0,2.0695801-0.0419922,3.0431519-0.1682129c5.1947021-0.6298828,9.0501099-3.5274658,9.0499268-8.8618164
	C22.4000244,15.7919922,19.0716553,13.1040039,14.8516846,12.9359131z M7.9130859,2.5617676
	c0.1625977-0.0419922,1.5822144-0.3358154,2.4343262-0.3358154c3.7330322,0,5.4783325,1.5960693,5.4780884,4.9979248
	c0,3.6120605-2.434082,5.1662598-6.1678467,5.1662598H7.9130859V2.5617676z M11.2403564,27.0480957
	c-1.4609375,0-3.0031738-0.3778076-3.3272705-0.4621582V14.447998h2.2719116c4.7484131,0,7.3857422,2.1418457,7.3857422,5.9642334
	C17.5707397,24.6542969,15.2581787,27.0480957,11.2403564,27.0480957z"/>
<path class="st0" d="M31.3400879,0v0.041748c1.6055908,0.5463867,2.3683472,1.4282227,2.3683472,3.0240479
	c0,0.9241943-0.3209839,2.394043-0.7627563,3.6120605l-7.7456665,22.7220459h3.2505493l2.9303589-8.9040527h9.3916626
	l3.0505371,8.9040527H49L38.5647583,0H31.3400879z M32.1434937,17.9759521l3.8129883-12.1802979h0.039978l3.8935547,12.1802979
	H32.1434937z"/>
<path class="st0" d="M51.7999878,0.041748c2.703064,1.0083008,3.576416,2.5623779,3.576416,7.4763184v21.8818359h4.8236084V0
	h-8.4000244V0.041748z"/>
<path class="st0" d="M90.5884399,0h-3.7839355L75.3320312,14.447998V0h-8.132019v0.041748
	c2.6169434,1.0083008,3.4620361,2.5623779,3.4620361,7.4763184v21.8818359h4.6699829V18.5637207l3.059021-4.0317383
	l8.2525635,14.8679199h5.7564087L81.6115723,11.0878906L90.5884399,0z"/>
<path class="st1" d="M99.9407349,0v0.041748c1.6053467,0.5463867,2.3676758,1.4282227,2.3676758,3.0240479
	c0,0.9241943-0.3209229,2.394043-0.7623291,3.6120605l-7.7460938,22.7220459h3.2508545l2.9303589-8.9040527h9.3911133
	l3.0507202,8.9040527h5.177002L107.1650391,0H99.9407349z M100.7435303,17.9759521l3.812561-12.1802979h0.0402222
	l3.8933105,12.1802979H100.7435303z"/>
<path class="st0" d="M132.9141846,27.0480957h-0.7870483h-0.4564209c-1.3258057,0-2.6516113-0.3361816-2.8999023-0.3361816V0
	h-8.3707886v0.041748c2.6937866,1.0083008,3.5636597,2.5623779,3.5636597,7.4763184v21.8818359H140v-6.2160645h-0.0415039
	C139.2955322,25.2419434,138.0112305,27.0480957,132.9141846,27.0480957z"/>
<path class="st1" d="M137.2000122,14.2364502c0-1.4005127-1.0585938-1.9962158-2.5878296-1.9962158
	c-1.5906982,0-3.012146,0.4874268-3.012146,1.9962158s1.4214478,1.9886475,3.012146,1.9886475
	C136.1414185,16.2250977,137.2000122,15.6291504,137.2000122,14.2364502z M134.5969238,15.2811279
	c-1.2977905,0-2.5643311-0.1547852-2.5643311-1.0446777c0-0.897583,1.2665405-1.0523682,2.5643311-1.0523682
	c1.3053589,0,2.1704712,0.3249512,2.1704712,1.0523682C136.767395,14.9560547,135.9022827,15.2811279,134.5969238,15.2811279z"/>
<path class="st1" d="M135.6395264,18.5388184V17.060791h-0.0075073c-0.0776367,0.3947754-0.3400879,0.5338135-0.6412354,0.4873047
	l-3.2901611-0.4873047v0.5106201l3.0274048,0.4255371v0.0079346l-3.0274048,1.2998047v0.4643555l3.0274048,1.3232422v0.0075684
	l-3.0274048,0.3791504v0.9208984l3.9389038-0.5725098v-1.4237061h-0.0075073
	c-0.0543823,0.2242432-0.1777344,0.3480225-0.3167114,0.3480225c-0.1005859,0-0.2011719-0.0153809-0.2935791-0.0541992
	l-2.201416-0.9594727v-0.0075684L135.6395264,18.5388184z"/>
<path class="st1" d="M136.1182861,7.9919434v0.015625c0.3401489,0.3327637,0.6104126,0.8356934,0.6104126,1.2458496
	c0,0.6033936-0.3320923,0.9128418-0.8883057,0.9128418c-0.687561,0-1.0351562-0.3867188-1.0351562-1.2148438V8.796875h-0.432251
	c0,1.0446777-0.1005859,1.6711426-0.942688,1.6711426c-0.9188843,0-1.3283081-0.7041016-1.3283081-1.9189453V7.9145508h-0.4013672
	v0.6345215c0,1.9345703,0.6098633,2.8553467,1.737793,2.8553467c0.8109131,0,1.2666626-0.6656494,1.2509766-1.539917h0.0078125
	c0.0618896,0.7197266,0.6799316,1.2148438,1.2280273,1.2148438c0.8883057,0,1.2747803-0.6574707,1.2747803-1.6789551
	c0-0.4489746-0.1624146-1.0369873-0.3555298-1.4084473H136.1182861z"/>
<path class="st1" d="M134.0328369,6.7307129V6.0651855h3.0744629V5.1601562l-3.1437988-2.3601074h-0.4558105V5.175415h-1.8070679
	v0.8897705h1.8070679v0.6655273H134.0328369z M134.0328369,3.49646l2.3097534,1.6789551h-2.3097534V3.49646z"/>
</svg>
